<svg width="65" height="40" viewBox="0 0 65 40" fill="none" xmlns="http://www.w3.org/2000/svg">
<rect width="64.0129" height="39.0323" transform="translate(0.90332 0.393555)" fill="white"/>
<g clip-path="url(#clip0_489_156)">
<path d="M25.2693 24.8442C25.016 25.4352 24.7025 25.9985 24.3338 26.5252C23.8441 27.2269 23.4421 27.7093 23.1351 27.9797C22.6527 28.4182 22.1411 28.6448 21.5929 28.6594C21.1982 28.6594 20.7232 28.5498 20.1677 28.3159C19.6827 28.1056 19.1614 27.9914 18.6328 27.9797C18.0899 27.9895 17.5539 28.1036 17.0541 28.3159C16.4913 28.5425 16.0382 28.6594 15.6873 28.6741C15.1611 28.696 14.6349 28.4621 14.1086 27.9724C13.7724 27.68 13.3558 27.1757 12.8515 26.4668C12.2859 25.6544 11.8381 24.7661 11.5213 23.8283C11.1485 22.7465 10.9585 21.7014 10.9585 20.6854C10.9585 19.5233 11.207 18.522 11.7113 17.6815C12.0929 17.0224 12.6362 16.4715 13.29 16.0808C13.9346 15.692 14.6715 15.4825 15.4242 15.4742C15.8408 15.4742 16.3963 15.6058 17.076 15.8616C17.7558 16.1174 18.1943 16.2489 18.3843 16.2489C18.5305 16.2489 19.0129 16.0955 19.8388 15.7958C20.6184 15.5181 21.2762 15.4011 21.8122 15.445C23.274 15.5619 24.3703 16.1393 25.1012 17.1772C23.7929 17.9665 23.1497 19.0775 23.1643 20.4954C23.179 21.6064 23.5809 22.5273 24.3703 23.2582C24.7211 23.5888 25.1267 23.8558 25.569 24.0475C25.4813 24.3253 25.3789 24.5884 25.2693 24.8442V24.8442ZM21.9218 11.6736C21.9218 12.5433 21.6075 13.3546 20.9717 14.1001C20.2115 14.9918 19.2833 15.5034 18.2893 15.423C18.2742 15.3141 18.2669 15.2042 18.2674 15.0941C18.2674 14.2609 18.6328 13.3692 19.276 12.6384C19.6178 12.2504 20.0357 11.9369 20.5039 11.7174C20.9404 11.493 21.4177 11.3587 21.9072 11.3228C21.9145 11.4397 21.9218 11.5566 21.9218 11.6736Z" fill="#272727"/>
<path d="M35.1583 20.3932C35.5189 20.3932 35.8332 20.3493 36.1012 20.2616C36.3692 20.169 36.5909 20.0399 36.7663 19.8742C36.9466 19.7037 37.0806 19.499 37.1683 19.2603C37.256 19.0166 37.2998 18.7462 37.2998 18.449C37.2998 18.1664 37.256 17.9106 37.1683 17.6816C37.0806 17.4525 36.949 17.2576 36.7736 17.0968C36.5982 16.936 36.3765 16.8142 36.1085 16.7314C35.8405 16.6437 35.5238 16.5998 35.1583 16.5998H33.6892V20.3932H35.1583ZM35.1583 15.0796C35.8648 15.0796 36.4764 15.1624 36.9929 15.3281C37.5093 15.4938 37.9357 15.7252 38.2719 16.0224C38.6081 16.3197 38.8566 16.6754 39.0174 17.0895C39.1831 17.5037 39.2659 17.9569 39.2659 18.449C39.2659 18.9606 39.1806 19.4308 39.0101 19.8596C38.8396 20.2835 38.5838 20.649 38.2427 20.9559C37.9016 21.2629 37.4728 21.5017 36.9563 21.6722C36.4447 21.8427 35.8454 21.928 35.1583 21.928H33.6892V25.6482H31.7231V15.0796H35.1583Z" fill="#272727"/>
<path d="M44.5139 22.447C43.9926 22.4713 43.554 22.5176 43.1983 22.5858C42.8426 22.6492 42.5576 22.732 42.3432 22.8343C42.1288 22.9366 41.9753 23.056 41.8827 23.1925C41.7901 23.3289 41.7439 23.4775 41.7439 23.6383C41.7439 23.955 41.8364 24.1816 42.0216 24.318C42.2116 24.4545 42.4577 24.5227 42.7598 24.5227C43.1301 24.5227 43.4493 24.4569 43.7173 24.3253C43.9901 24.1889 44.2557 23.9843 44.5139 23.7114V22.447ZM40.3771 19.1945C41.2395 18.4051 42.2774 18.0105 43.4907 18.0105C43.9292 18.0105 44.3215 18.0835 44.6674 18.2297C45.0134 18.371 45.3057 18.5708 45.5445 18.8291C45.7832 19.0824 45.9635 19.387 46.0853 19.7427C46.212 20.0984 46.2754 20.4882 46.2754 20.9121V25.6482H45.4568C45.2862 25.6482 45.1547 25.6239 45.0621 25.5752C44.9695 25.5216 44.8964 25.4168 44.8428 25.2609L44.682 24.72C44.492 24.8906 44.3068 25.0416 44.1266 25.1732C43.9463 25.2999 43.7587 25.4071 43.5638 25.4948C43.3689 25.5825 43.1593 25.6482 42.9352 25.6921C42.7159 25.7408 42.4723 25.7652 42.2043 25.7652C41.8876 25.7652 41.5952 25.7238 41.3273 25.6409C41.0593 25.5532 40.8278 25.4241 40.6329 25.2536C40.438 25.083 40.287 24.8711 40.1798 24.6177C40.0726 24.3643 40.019 24.0695 40.019 23.7333C40.019 23.5433 40.0506 23.3557 40.114 23.1705C40.1773 22.9805 40.2796 22.8002 40.4209 22.6297C40.5671 22.4591 40.7547 22.2983 40.9837 22.1473C41.2127 21.9962 41.4929 21.8647 41.8243 21.7526C42.1605 21.6405 42.5503 21.5504 42.9937 21.4822C43.4371 21.4091 43.9438 21.3652 44.5139 21.3506V20.9121C44.5139 20.4102 44.4067 20.0399 44.1923 19.8011C43.9779 19.5575 43.6685 19.4357 43.2641 19.4357C42.9718 19.4357 42.7281 19.4698 42.5332 19.538C42.3432 19.6062 42.1751 19.6842 42.0289 19.7719C41.8827 19.8547 41.7487 19.9303 41.6269 19.9985C41.51 20.0667 41.3784 20.1008 41.2322 20.1008C41.1055 20.1008 40.9984 20.0691 40.9106 20.0058C40.8229 19.9376 40.7523 19.8596 40.6987 19.7719L40.3771 19.1945Z" fill="#272727"/>
<path d="M54.8657 18.1493L50.78 27.7093C50.7264 27.836 50.6558 27.9311 50.5681 27.9944C50.4852 28.0626 50.3561 28.0967 50.1807 28.0967H48.8359L50.2392 25.0855L47.206 18.1493H48.792C48.9333 18.1493 49.043 18.1834 49.1209 18.2516C49.2038 18.3199 49.2647 18.3978 49.3036 18.4855L50.897 22.3739C50.9506 22.5054 50.9944 22.637 51.0285 22.7685C51.0675 22.9001 51.1041 23.0341 51.1382 23.1705C51.182 23.0341 51.2259 22.9001 51.2697 22.7685C51.3136 22.6321 51.3623 22.4981 51.4159 22.3666L52.9215 18.4855C52.9605 18.3881 53.0239 18.3077 53.1116 18.2443C53.2042 18.181 53.3065 18.1493 53.4185 18.1493H54.8657Z" fill="#272727"/>
</g>
<defs>
<clipPath id="clip0_489_156">
<rect width="43.7161" height="17.1742" fill="white" transform="translate(10.9585 11.3228)"/>
</clipPath>
</defs>
</svg>
