<svg width="65" height="40" viewBox="0 0 65 40" fill="none" xmlns="http://www.w3.org/2000/svg">
<rect width="64.0129" height="39.0323" transform="translate(0.90332 0.393555)" fill="white"/>
<g clip-path="url(#clip0_489_147)">
<path d="M31.4095 19.673V24.6871H29.8276V12.3098H34.0229C35.0349 12.2901 36.0076 12.675 36.7445 13.3857C37.4814 14.047 37.894 15.0044 37.8744 15.9914C37.894 16.9883 37.4814 17.9457 36.7445 18.6169C36.0076 19.3177 35.1037 19.673 34.0328 19.673H31.4095V19.673ZM31.4095 13.8298V18.153H34.0622C34.6517 18.1727 35.2216 17.9358 35.6244 17.5114C36.4595 16.7021 36.4694 15.3696 35.6637 14.5306L35.6244 14.4911C35.2216 14.0568 34.6517 13.8199 34.0622 13.8397L31.4095 13.8298V13.8298ZM41.5195 15.942C42.6886 15.942 43.6122 16.2579 44.2901 16.8797C44.968 17.5114 45.3021 18.3701 45.3021 19.4657V24.6772H43.789V23.5026H43.7203C43.062 24.4699 42.1974 24.9536 41.1068 24.9536C40.1832 24.9536 39.3972 24.6772 38.7783 24.1245C38.1691 23.6112 37.8252 22.8512 37.8449 22.0517C37.8449 21.1733 38.1789 20.4824 38.8372 19.9592C39.4955 19.4361 40.3797 19.1795 41.4802 19.1795C42.4234 19.1795 43.1897 19.3571 43.7989 19.6927V19.3275C43.7989 18.7847 43.5631 18.2714 43.1504 17.926C42.7279 17.5509 42.1876 17.3436 41.6275 17.3436C40.7433 17.3436 40.0457 17.7187 39.525 18.4688L38.1298 17.5904C38.8863 16.4948 40.0162 15.942 41.5195 15.942V15.942ZM39.4758 22.0912C39.4758 22.5057 39.6723 22.8907 39.9966 23.1276C40.3503 23.4039 40.7826 23.552 41.2247 23.5421C41.8928 23.5421 42.5314 23.2756 43.003 22.8019C43.5238 22.3083 43.789 21.726 43.789 21.0548C43.2978 20.66 42.61 20.4626 41.7258 20.4626C41.0871 20.4626 40.5468 20.6205 40.1145 20.9265C39.692 21.2424 39.4758 21.6273 39.4758 22.0912V22.0912ZM53.9874 16.2184L48.7016 28.418H47.0706L49.0356 24.1541L45.5575 16.2283H47.2769L49.7823 22.3083H49.8216L52.2681 16.2283L53.9874 16.2184Z" fill="#5F6368"/>
<path d="M25.0137 18.587C25.0137 18.1034 24.9744 17.6198 24.8958 17.146H18.2246V19.88H22.0466C21.8894 20.7585 21.3785 21.5481 20.6317 22.0416V23.8183H22.9112C24.2474 22.5845 25.0137 20.7585 25.0137 18.587Z" fill="#4285F4"/>
<path d="M18.2247 25.536C20.1308 25.536 21.7421 24.9043 22.9113 23.8186L20.6319 22.0419C19.9932 22.4762 19.1778 22.723 18.2247 22.723C16.3776 22.723 14.8154 21.4694 14.2554 19.7915H11.9072V21.6274C13.1059 24.016 15.5523 25.536 18.2247 25.536Z" fill="#34A853"/>
<path d="M14.2551 19.7914C13.9604 18.9129 13.9604 17.9555 14.2551 17.0672V15.2412H11.9069C11.408 16.2292 11.1479 17.3214 11.1479 18.4293C11.1479 19.5372 11.408 20.6294 11.9069 21.6174L14.2551 19.7914V19.7914Z" fill="#FBBC04"/>
<path d="M18.2247 14.1357C19.2367 14.116 20.2094 14.5009 20.9365 15.2017L22.9506 13.1783C21.6733 11.9643 19.9834 11.303 18.2247 11.3227C15.5523 11.3227 13.1059 12.8427 11.9072 15.2412L14.2554 17.077C14.8154 15.3892 16.3776 14.1357 18.2247 14.1357Z" fill="#EA4335"/>
</g>
<defs>
<clipPath id="clip0_489_147">
<rect width="42.9355" height="17.1742" fill="white" transform="translate(11.0518 11.3228)"/>
</clipPath>
</defs>
</svg>
