<svg width="65" height="40" viewBox="0 0 65 40" fill="none" xmlns="http://www.w3.org/2000/svg">
<rect width="64.0129" height="39.0323" transform="translate(0.902832 0.393555)" fill="white"/>
<g clip-path="url(#clip0_489_142)">
<path d="M33.9394 17.261C33.9109 19.5084 35.9422 20.7626 37.4725 21.5082C39.0447 22.2733 39.5728 22.7639 39.5668 23.448C39.5548 24.4952 38.3126 24.9573 37.1499 24.9753C35.1216 25.0068 33.9424 24.4277 33.0047 23.9896L32.2741 27.4087C33.2148 27.8423 34.9565 28.2203 36.7628 28.2368C41.0025 28.2368 43.7765 26.144 43.7915 22.8989C43.808 18.7807 38.0951 18.5527 38.1341 16.7119C38.1476 16.1538 38.6802 15.5582 39.8474 15.4067C40.425 15.3302 42.0197 15.2717 43.8275 16.1043L44.5371 12.7963C43.565 12.4422 42.3153 12.1031 40.7595 12.1031C36.7688 12.1031 33.9619 14.2245 33.9394 17.261ZM51.3558 12.3882C50.5816 12.3882 49.929 12.8398 49.638 13.5329L43.5815 27.9938H47.8182L48.6613 25.6639H53.8387L54.3278 27.9938H58.0619L54.8033 12.3882H51.3558ZM51.9484 16.6039L53.1711 22.4639H49.8225L51.9484 16.6039ZM28.8025 12.3882L25.463 27.9938H29.5001L32.8382 12.3882H28.8025ZM22.83 12.3882L18.6278 23.0099L16.9281 13.9785C16.7285 12.9703 15.9409 12.3882 15.0662 12.3882H8.1966L8.10059 12.8413C9.51082 13.1473 11.1131 13.6409 12.0837 14.169C12.6778 14.4915 12.8474 14.7736 13.0424 15.5402L16.2619 27.9938H20.5286L27.0697 12.3882H22.83Z" fill="url(#paint0_linear_489_142)"/>
</g>
<defs>
<linearGradient id="paint0_linear_489_142" x1="31.0699" y1="28.5605" x2="31.5369" y2="11.9909" gradientUnits="userSpaceOnUse">
<stop stop-color="#222357"/>
<stop offset="1" stop-color="#254AA5"/>
</linearGradient>
<clipPath id="clip0_489_142">
<rect width="49.9613" height="16.1984" fill="white" transform="translate(8.10059 12.103)"/>
</clipPath>
</defs>
</svg>
